<?xml version="1.0" encoding="UTF-8"?>
<svg version="1.1" xmlns="http://www.w3.org/2000/svg" width="1024" height="1024">
<path d="M0 0 C337.92 0 675.84 0 1024 0 C1024 337.92 1024 675.84 1024 1024 C686.08 1024 348.16 1024 0 1024 C0 686.08 0 348.16 0 0 Z " fill="#FCFCFC" transform="translate(0,0)"/>
<path d="M0 0 C4.92568452 0.0112531 9.85132475 -0.00087925 14.77700639 -0.00984204 C24.39001511 -0.02367843 34.00289127 -0.01629085 43.61589353 -0.00116646 C54.8351278 0.01580492 66.05433008 0.01246962 77.27357323 0.00873946 C97.30128433 0.0028789 117.32893229 0.01696352 137.35662675 0.04168689 C156.74792683 0.06562161 176.13914266 0.0726813 195.53045487 0.06219471 C216.70502458 0.05076408 237.87955546 0.04888041 259.05412471 0.0632928 C261.31519254 0.06481848 263.57626036 0.06633883 265.8373282 0.06785381 C267.50559901 0.06899053 267.50559901 0.06899053 269.20757227 0.07015022 C277.01110187 0.07487497 284.814614 0.07305464 292.61814332 0.06878841 C302.13501687 0.06384243 311.65181106 0.06993235 321.16866653 0.08968271 C326.0156699 0.09949692 330.86255291 0.10472381 335.70956254 0.09679019 C340.15930049 0.08965621 344.60879721 0.09671511 349.0585037 0.11439382 C350.65498379 0.11838877 352.25148642 0.1175236 353.84795766 0.11087496 C369.17717171 0.05257396 384.09855242 2.24899011 398.98992753 5.88323963 C399.87124345 6.0967406 400.75255937 6.31024158 401.66058183 6.53021228 C408.45485452 8.2367623 414.7001698 10.55232236 421.05242753 13.50823963 C422.9382541 14.28699391 424.82409165 15.06572173 426.71014237 15.84393299 C444.81082106 23.43994789 460.46721403 34.1671682 474.83367753 47.50042713 C476.38754288 48.90656585 477.99518347 50.2544694 479.63836503 51.55511463 C496.24003566 64.98688698 508.11771619 86.49221995 517.05242753 105.50823963 C517.58738847 106.61425525 518.12234941 107.72027088 518.67352128 108.85980213 C521.85658564 115.78813442 524.17631157 122.80322431 526.23992753 130.13323963 C526.47792069 130.96033435 526.71591386 131.78742908 526.96111894 132.63958728 C532.75845889 154.2323426 532.49003281 175.86899839 532.44460154 198.02991092 C532.43775156 202.98160243 532.44832144 207.93326338 532.4565413 212.88494861 C532.46981798 222.55978153 532.4670281 232.23454427 532.45830338 241.90937984 C532.45150322 249.77868332 532.45062015 257.64796725 532.45387483 265.51727283 C532.45433453 266.64113596 532.45479422 267.76499909 532.45526785 268.92291868 C532.45622712 271.20666938 532.45719976 273.49042007 532.45818563 275.77417076 C532.46672176 297.14350189 532.45693336 318.51279428 532.44078453 339.88211906 C532.42738298 358.18199113 532.42971157 376.48180609 532.44354081 394.78167713 C532.45962811 416.07927121 532.46589795 437.37683142 532.45670402 458.67443073 C532.45574846 460.94935595 532.45480535 463.22428119 532.45387483 465.49920642 C532.453412 466.61824942 532.45294917 467.73729241 532.45247232 468.8902458 C532.44989187 476.74184127 532.45423296 484.59341509 532.46131349 492.44500721 C532.46976377 502.02528242 532.46737462 511.60548397 532.45147125 521.18575084 C532.44363577 526.06525077 532.44041543 530.9446283 532.45041871 535.82412708 C532.49201643 557.94247386 532.4417247 579.36848387 526.23992753 600.82073963 C525.98130937 601.73677967 525.7226912 602.65281971 525.45623612 603.59661853 C518.5172471 627.54894953 506.62023479 650.78302173 490.05242753 669.50823963 C489.18746659 670.49437244 488.32250566 671.48050525 487.43133378 672.49652088 C462.55243449 700.47359764 429.5349442 719.75475689 393.11492753 728.32073963 C391.9034102 728.61295398 391.9034102 728.61295398 390.66741776 728.91107166 C369.66475543 733.5348757 348.01714668 732.8105093 326.64788544 732.79900706 C321.85761656 732.7985947 317.06737091 732.8096774 312.2771132 732.8191222 C302.91678551 732.83564287 293.55648302 732.84122765 284.19614195 732.84234695 C276.57814038 732.8433016 268.96014703 732.84743254 261.34214807 732.8537482 C239.68341851 732.87133547 218.02470867 732.8805909 196.36597192 732.87908725 C195.20152326 732.87900734 194.03707461 732.87892743 192.83733964 732.8788451 C191.6714486 732.87876333 190.50555756 732.87868157 189.3043365 732.87859733 C170.42215711 732.87778493 151.54005758 732.89691766 132.65790128 732.92512183 C113.21074867 732.95393785 93.7636349 732.96765737 74.31646043 732.96593428 C63.422079 732.96527343 52.52778132 732.97063112 41.63341928 732.99229038 C32.35673022 733.01061729 23.0801629 733.01475592 13.80346345 733.00127153 C9.08304819 732.99479969 4.36286569 732.99441155 -0.35752654 733.01197803 C-34.30879285 733.13025011 -65.8937001 730.35975409 -96.94757247 715.50823963 C-97.62304122 715.19096912 -98.29850997 714.87369861 -98.99444747 714.54681385 C-108.16217792 710.22359133 -116.71484489 705.46758667 -124.94757247 699.50823963 C-125.97108809 698.77089588 -126.99460372 698.03355213 -128.04913497 697.27386463 C-140.75404578 687.91183994 -152.49860501 677.18282864 -161.94757247 664.50823963 C-162.34250899 663.98826404 -162.73744552 663.46828846 -163.14434981 662.93255603 C-169.95709405 653.93123431 -175.73313836 644.51578949 -180.94757247 634.50823963 C-181.26854903 633.89367908 -181.58952559 633.27911853 -181.92022872 632.64593494 C-194.52931867 608.10041569 -200.10505712 580.55785611 -200.08801436 553.15393054 C-200.09060104 551.48645995 -200.09361503 549.81898998 -200.09701777 548.15152085 C-200.1050559 543.58335579 -200.10687556 539.01520648 -200.10761523 534.44703519 C-200.10947142 529.51422604 -200.11702171 524.58142495 -200.12375045 519.64862049 C-200.13731285 508.86709664 -200.14335557 498.08557652 -200.14776111 487.30404556 C-200.15052775 480.56474912 -200.15476593 473.82545411 -200.15926528 467.08615863 C-200.17145649 448.40731764 -200.18175527 429.72847779 -200.18514037 411.04963291 C-200.18535994 409.85488163 -200.1855795 408.66013036 -200.18580572 407.4291745 C-200.186024 406.23164316 -200.18624228 405.03411182 -200.18646717 403.80029166 C-200.18691063 401.37383942 -200.18735719 398.94738718 -200.18780684 396.52093494 C-200.18802827 395.31734337 -200.1882497 394.11375181 -200.18847784 392.87368777 C-200.19242186 373.39185223 -200.20986446 353.91005419 -200.23316637 334.42823312 C-200.25692654 314.40063552 -200.26934439 294.3730567 -200.27050829 274.3454448 C-200.27142257 263.11128513 -200.2771121 251.87717429 -200.2953279 240.64302814 C-200.31079215 231.07240568 -200.31581235 221.50184713 -200.3075898 211.93121454 C-200.30370524 207.0557107 -200.30450442 202.18033531 -200.31864715 197.3048476 C-200.44012679 152.89247612 -200.44012679 152.89247612 -194.32257247 131.50823963 C-194.07096358 130.61218006 -193.8193547 129.71612049 -193.5601213 128.7929076 C-180.66780354 84.86608885 -149.98548259 45.7584167 -109.95392013 23.3944701 C-105.35858036 20.94058312 -100.67360989 18.6973198 -95.94757247 16.50823963 C-94.25567794 15.70773181 -94.25567794 15.70773181 -92.52960372 14.89105213 C-62.76614129 1.42247475 -32.12098255 -0.10243386 0 0 Z " fill="#171314" transform="translate(345.9475724697113,145.49176037311554)"/>
<path d="M0 0 C2.07607895 -0.00571202 4.15215477 -0.01267947 6.22822571 -0.02079773 C11.83370194 -0.03865258 17.43902098 -0.0375752 23.04451704 -0.03185534 C27.73855185 -0.02875227 32.43255695 -0.03486837 37.12658751 -0.04089409 C48.20762674 -0.05491261 59.28858882 -0.05340039 70.36962891 -0.04199219 C81.76962969 -0.03051436 93.16939512 -0.04458726 104.56936491 -0.07138866 C114.38720674 -0.09359916 124.20497499 -0.10017098 134.02284014 -0.09431225 C139.87333035 -0.09095419 145.72366976 -0.09328096 151.57413864 -0.11056328 C157.07860038 -0.12611572 162.58271547 -0.12198525 168.08716393 -0.10325813 C170.09657033 -0.0995951 172.1060029 -0.10261321 174.11538506 -0.11314392 C188.8182318 -0.18426095 202.18151182 1.05495745 215.39697266 8.15405273 C216.05640869 8.49766846 216.71584473 8.84128418 217.39526367 9.1953125 C231.25176404 16.55872689 243.05982319 25.10475379 250.20947266 39.40405273 C250.62326172 40.21100586 251.03705078 41.01795898 251.46337891 41.84936523 C255.9093059 51.980502 255.78023398 64.4661941 252.58447266 74.96655273 C250.50767257 80.28375011 247.67720524 84.88733104 244.20947266 89.40405273 C243.59072266 90.23936523 242.97197266 91.07467773 242.33447266 91.93530273 C235.8097688 99.51547339 224.9157223 104.74196888 214.98730469 105.5949707 C199.2354951 106.36765259 199.2354951 106.36765259 195.20947266 103.40405273 C193.49072266 101.51342773 193.49072266 101.51342773 191.70947266 99.15405273 C188.34577447 94.81319083 184.86382636 90.61770533 181.27197266 86.46655273 C177.7138324 82.34424288 174.19873002 78.19960595 170.77197266 73.96655273 C166.67328844 68.91916764 162.43039706 64.00923604 158.16040039 59.10717773 C154.5171397 54.9221425 150.91127901 50.70847801 147.33447266 46.46655273 C146.88120605 45.9318335 146.42793945 45.39711426 145.9609375 44.84619141 C144.02737937 42.56513566 142.10604729 40.27710316 140.21728516 37.95874023 C136.12729836 33.03257836 132.45854501 29.0727592 125.82666016 28.02905273 C118.76112084 27.68333827 113.70209725 29.3666634 108.38134766 33.99389648 C104.71209454 38.04893556 103.7737252 41.45988799 103.58447266 46.90405273 C104.12389124 56.87755812 108.26892182 61.79604308 114.94775391 68.92749023 C117.96779683 72.23441116 120.61371587 75.75981379 123.20947266 79.40405273 C122.11892578 79.2712793 121.02837891 79.13850586 119.90478516 79.00170898 C109.01474808 77.71379715 98.1632391 76.89606588 87.20947266 76.40405273 C88.04349609 77.35924805 88.87751953 78.31444336 89.73681641 79.29858398 C95.58160296 86.00797362 101.36555792 92.74691257 106.96728516 99.66186523 C109.51200948 102.77405422 112.1056549 105.84131771 114.70947266 108.90405273 C118.08235867 112.87304425 121.4212404 116.86422453 124.70947266 120.90405273 C130.2560697 127.71393167 135.94826496 134.39898607 141.64160156 141.08618164 C146.89801045 147.2608032 152.09241883 153.46805809 157.12744141 159.82592773 C159.54032792 162.81374218 162.02804573 165.73407815 164.52197266 168.65405273 C168.51234354 173.34580399 172.4335279 178.08703088 176.27197266 182.90405273 C176.73708252 183.47929687 177.20219238 184.05454102 177.68139648 184.6472168 C183.00988805 191.39525259 184.13587365 196.94767446 183.20947266 205.40405273 C181.38792952 212.13684509 177.07143874 215.93029505 171.20947266 219.40405273 C165.69751862 221.98411633 159.95206983 222.45170425 154.08837891 220.81030273 C145.59358065 216.94477986 139.94870027 208.46585471 134.20947266 201.40405273 C133.01644531 199.95192383 133.01644531 199.95192383 131.79931641 198.47045898 C130.36522974 196.71884314 128.93552828 194.96362777 127.51025391 193.20483398 C124.8288835 189.9407549 122.08884402 186.73154553 119.33447266 183.52905273 C118.8273877 182.93946777 118.32030273 182.34988281 117.79785156 181.74243164 C117.29044434 181.15252441 116.78303711 180.56261719 116.26025391 179.95483398 C109.24160876 171.79429297 102.3168707 163.56457033 95.52197266 155.21655273 C92.48514495 151.52311364 89.3898631 147.88106787 86.29321289 144.23779297 C83.41401946 140.84451164 80.57743029 137.42137488 77.77197266 133.96655273 C74.31672639 129.72012306 70.78235313 125.55121618 67.20947266 121.40405273 C62.97084012 116.4813853 58.80139859 111.5132175 54.70556641 106.47045898 C50.85326059 101.73797061 46.96507865 97.03508115 43.08105469 92.32861328 C42.5085498 91.63421143 41.93604492 90.93980957 41.34619141 90.22436523 C40.79624512 89.56726563 40.24629883 88.91016602 39.6796875 88.2331543 C38.20947266 86.40405273 38.20947266 86.40405273 36.22900391 83.39624023 C34.30032139 81.10217954 34.30032139 81.10217954 31.06884766 80.93530273 C26.36508938 81.50660941 21.99968234 82.5707296 17.45947266 83.90405273 C16.09749756 84.29802246 16.09749756 84.29802246 14.70800781 84.69995117 C4.39194037 87.7913762 -6.77243137 91.39198875 -15.79052734 97.40405273 C-18.80988679 97.29199403 -19.83081349 96.36634101 -22.05224609 94.28686523 C-22.85275391 93.37678711 -23.65326172 92.46670898 -24.47802734 91.52905273 C-24.91300537 91.03800049 -25.3479834 90.54694824 -25.79614258 90.04101562 C-29.50632814 85.81935881 -33.04617243 81.46076665 -36.57568359 77.08764648 C-38.74685561 74.45696716 -40.99294091 71.92462849 -43.29052734 69.40405273 C-46.46232584 65.92227044 -49.50359225 62.36858108 -52.47802734 58.71655273 C-53.22439453 57.80389648 -53.97076172 56.89124023 -54.73974609 55.95092773 C-55.97438151 54.41762813 -57.19140677 52.86954683 -58.37255859 51.29467773 C-62.67383192 45.74923443 -67.54256166 42.99102235 -74.53271484 42.02514648 C-80.77308765 41.75720804 -85.71556795 42.65550319 -90.79052734 46.40405273 C-94.94639248 50.27367206 -97.41249537 54.55488545 -98.16162109 60.20092773 C-98.42199459 71.77989017 -93.85571176 77.58671827 -86.17333984 85.81420898 C-83.01297266 89.24916545 -80.10607067 92.86388185 -77.16943359 96.48999023 C-74.59928047 99.6383223 -71.98288592 102.74316142 -69.35302734 105.84155273 C-68.89782715 106.38134766 -68.44262695 106.92114258 -67.97363281 107.47729492 C-65.62213773 110.26320608 -63.24898197 113.0249272 -60.83349609 115.75561523 C-60.12954712 116.56494507 -60.12954712 116.56494507 -59.41137695 117.390625 C-58.11353424 118.88262406 -56.80392729 120.36436599 -55.49365234 121.84545898 C-53.79052734 124.40405273 -53.79052734 124.40405273 -53.80615234 126.47436523 C-55.02981559 128.87313365 -56.52064878 130.68329938 -58.29052734 132.71655273 C-78.316682 157.14917792 -86.73498995 188.15033524 -91.47802734 218.77905273 C-91.59758789 219.55063721 -91.71714844 220.32222168 -91.84033203 221.1171875 C-97.04603788 256.81399507 -95.77898948 295.06505988 -88.79052734 330.40405273 C-88.58766113 331.48428711 -88.38479492 332.56452148 -88.17578125 333.67749023 C-83.55769668 357.93690192 -74.53200885 382.42546596 -59.79052734 402.40405273 C-59.04287109 403.4469043 -58.29521484 404.48975586 -57.52490234 405.56420898 C-39.32429316 430.47913549 -14.21285274 446.74477165 15.20947266 455.40405273 C15.96776367 455.63141113 16.72605469 455.85876953 17.50732422 456.09301758 C52.25550719 465.94212129 93.72886711 459.59199656 127.20947266 448.40405273 C128.07572266 448.11626953 128.94197266 447.82848633 129.83447266 447.53198242 C141.12267802 443.72134211 151.69727586 438.98748345 162.20947266 433.40405273 C163.4878696 432.73560777 164.76651475 432.06763728 166.04541016 431.40014648 C171.64120252 428.46111653 177.17455454 425.44393172 182.62915039 422.25 C198.02455125 413.25003703 213.35785061 408.40151708 231.31298828 411.80249023 C240.8527141 414.42163354 249.61506839 420.0967399 256.20947266 427.40405273 C256.69029297 427.90420898 257.17111328 428.40436523 257.66650391 428.91967773 C267.6463867 439.73332289 269.80484592 451.92672002 269.45556641 466.18139648 C268.77085723 481.38466548 261.6065215 493.68240434 250.76318359 504.02124023 C237.78674367 515.57035333 219.74351653 522.66265117 203.58447266 528.40405273 C202.80442871 528.68265137 202.02438477 528.96125 201.22070312 529.24829102 C188.81995759 533.45733201 176.83709266 533.69794913 163.88696289 533.67871094 C161.94412542 533.68306458 160.00128966 533.68824989 158.05845642 533.69419861 C152.8059811 533.70753385 147.55357799 533.70817308 142.30108905 533.70563531 C137.90071162 533.70456126 133.50034855 533.70946035 129.09997422 533.71424073 C118.70636826 533.72531833 108.31279845 533.72578403 97.91918945 533.71972656 C87.23732642 533.71369618 76.55559543 533.72597805 65.87375492 533.74729663 C56.66992245 533.7649824 47.46613172 533.7709028 38.26228291 533.76765889 C32.78001219 533.765856 27.29783553 533.76838145 21.81558037 533.78237343 C16.65180895 533.79506013 11.48824116 533.79290645 6.32447243 533.77996254 C4.44371849 533.7776201 2.56294974 533.78024617 0.68221283 533.78858566 C-42.34830176 533.96542475 -78.63636774 515.20527948 -109.29882812 485.83276367 C-110.67218231 484.51740055 -112.05700974 483.21404424 -113.44287109 481.91186523 C-120.31128929 475.29301041 -126.07796505 468.01177787 -131.79052734 460.40405273 C-132.20802246 459.85797363 -132.62551758 459.31189453 -133.05566406 458.74926758 C-167.76907244 413.21287666 -181.58058432 356.91235828 -187.4140625 301.00341797 C-187.63569416 298.88440658 -187.86596641 296.76621376 -188.11621094 294.65039062 C-189.03680395 286.24203621 -188.94123752 277.8110411 -188.92089844 269.36328125 C-188.91557379 266.7394422 -188.9208519 264.11577698 -188.92724609 261.49194336 C-188.94750252 218.51084783 -182.00667721 175.34643488 -165.79052734 135.40405273 C-165.34870117 134.31398926 -165.34870117 134.31398926 -164.89794922 133.2019043 C-155.2207451 109.69862993 -142.43791581 87.64976318 -125.79052734 68.40405273 C-125.13181641 67.63448242 -124.47310547 66.86491211 -123.79443359 66.07202148 C-111.69401174 52.27891302 -98.75165194 40.03001337 -83.79052734 29.40405273 C-83.14728516 28.94272949 -82.50404297 28.48140625 -81.84130859 28.00610352 C-72.63015441 21.45146519 -63.07209584 16.09052437 -52.79052734 11.40405273 C-51.6286792 10.87352295 -51.6286792 10.87352295 -50.44335938 10.33227539 C-48.00476985 9.23228875 -45.55686728 8.15704882 -43.10302734 7.09155273 C-42.36793945 6.76590332 -41.63285156 6.44025391 -40.87548828 6.10473633 C-27.3325902 0.3810016 -14.46168722 -0.03611652 0 0 Z " fill="#D7D6D7" transform="translate(497.79052734375,247.595947265625)"/>
<path d="M0 0 C6.09723425 3.08665691 10.16314322 8.50254893 14.4375 13.6875 C15.15550781 14.55761719 15.87351562 15.42773438 16.61328125 16.32421875 C18.06925754 18.10492832 19.51956002 19.89028859 20.96484375 21.6796875 C23.8543038 25.19451252 26.82431826 28.63160851 29.8125 32.0625 C35.29347293 38.35714806 40.70877569 44.70252319 46.0859375 51.0859375 C47.4706547 52.72678736 48.85968891 54.36388805 50.25 56 C54.50264124 61.00696389 58.73197886 66.02647129 62.875 71.125 C67.29012824 76.54750153 71.83762477 81.84877455 76.3984375 87.1484375 C79.71871506 91.00839192 83.00461554 94.89682926 86.28808594 98.78808594 C89.69044577 102.81571793 93.12328608 106.81632616 96.5625 110.8125 C100.14376602 114.9743418 103.6690813 119.17019169 107.125 123.4375 C109.97208501 126.9463399 112.89562552 130.34616637 115.9375 133.6875 C119.77819657 137.90629623 123.39660346 142.26468295 126.984375 146.69921875 C129.77202815 150.09500643 132.62970211 153.4241349 135.5 156.75 C152.00409614 175.92429864 152.00409614 175.92429864 151.8203125 185.73046875 C151.03201672 191.81965146 148.31195983 196.81304017 144 201.125 C136.33764036 205.79717051 130.38029457 206.84075631 121.4375 205.6875 C112.76430174 202.7872267 106.73250002 193.47092163 101.09716797 186.67773438 C98.99663756 184.15882824 96.85393661 181.67815418 94.70849609 179.19750977 C90.73728718 174.60225374 86.82566141 169.9676189 83 165.25 C78.89964086 160.2005523 74.65380651 155.28976983 70.3840332 150.3840332 C63.41311981 142.37150076 56.54058502 134.28054157 49.8125 126.0625 C48.73742187 124.74958984 48.73742187 124.74958984 47.640625 123.41015625 C46.07262995 121.4724035 44.5223556 119.52025372 42.984375 117.55859375 C42.18515625 116.54925781 41.3859375 115.53992188 40.5625 114.5 C39.48355469 113.11748047 39.48355469 113.11748047 38.3828125 111.70703125 C37.41988281 110.70736328 37.41988281 110.70736328 36.4375 109.6875 C35.4475 109.6875 34.4575 109.6875 33.4375 109.6875 C31.87860487 111.57820815 30.60313872 113.37050546 29.3125 115.4375 C28.72807129 116.36937134 28.72807129 116.36937134 28.13183594 117.32006836 C15.53724251 138.04761797 10.59150435 159.86829081 7.80200195 183.71142578 C7.53263364 185.91075578 7.23523745 188.10669451 6.92260742 190.30029297 C5.53992792 200.30268154 5.0763288 210.09536009 5.125 220.1875 C5.12773422 221.37672058 5.12773422 221.37672058 5.13052368 222.58996582 C5.22643947 247.67303839 7.69946516 272.2239007 13.4375 296.6875 C13.6142627 297.45916504 13.79102539 298.23083008 13.97314453 299.02587891 C15.91420287 307.38020918 18.60388416 315.0095299 22.4375 322.6875 C23.17419922 324.30205078 23.17419922 324.30205078 23.92578125 325.94921875 C36.0465529 351.78179413 56.40783912 370.92356986 83.1328125 381.09375 C96.35605382 385.75980027 108.79337938 387.06445138 122.75 387 C123.94112396 386.99776428 123.94112396 386.99776428 125.15631104 386.9954834 C143.14736965 386.93483582 160.27723842 385.36628692 177.4375 379.6875 C178.53964844 379.36394531 179.64179687 379.04039062 180.77734375 378.70703125 C197.52075278 373.58225302 213.29356694 365.49541138 228.69287109 357.26049805 C253.72808076 343.89033413 280.1118169 334.06924568 308.58984375 342.296875 C319.73113355 346.12982194 329.73075144 351.72074635 338.4375 359.6875 C339.11941406 360.27789063 339.80132813 360.86828125 340.50390625 361.4765625 C353.59371257 373.51611038 362.46418927 392.01979439 363.4375 409.6875 C363.48745117 410.37118652 363.53740234 411.05487305 363.58886719 411.75927734 C364.99908918 432.76439917 358.7111092 451.40007414 345.09765625 467.4453125 C333.21183207 480.04390085 316.63140822 490.56556988 298.97026527 491.86968255 C296.26627715 491.93760068 293.56903585 491.94465659 290.86424255 491.92800903 C289.32137568 491.93057231 289.32137568 491.93057231 287.74733979 491.93318737 C284.32033861 491.9364667 280.8935357 491.92550419 277.46655273 491.91455078 C275.0022024 491.91398633 272.53785173 491.91430389 270.07350159 491.91543579 C264.77795833 491.91589039 259.48247612 491.91023851 254.18694878 491.89896011 C246.53063751 491.88266439 238.87435004 491.87749295 231.21802331 491.87498413 C218.79434248 491.8706134 206.37068801 491.85732122 193.94702148 491.83837891 C181.88289522 491.82000398 169.81877612 491.80585538 157.75463867 491.79736328 C157.01025429 491.79683783 156.26586991 491.79631239 155.49892842 491.79577102 C151.76434636 491.79316083 148.02976425 491.79063344 144.29518211 491.78814721 C113.34260225 491.76743409 82.39005514 491.73207624 51.4375 491.6875 C51.4375 491.3575 51.4375 491.0275 51.4375 490.6875 C52.45018763 490.68511165 53.46287525 490.68272329 54.50625038 490.68026257 C79.18798941 490.62137431 103.86963155 490.54543401 128.55126381 490.45178509 C140.48729187 490.40688812 152.4232905 490.36745942 164.359375 490.34106445 C174.76720698 490.31803495 185.17494534 490.28458174 195.58270299 490.23879844 C201.08957947 490.21493297 206.59636361 490.1961605 212.10329056 490.18988609 C217.29567001 490.18380497 222.48781342 490.1636965 227.68010521 490.13322449 C229.57702554 490.12449256 231.47397678 490.12071153 233.37091637 490.12249184 C248.01980517 490.13189206 261.02085466 488.35053112 274.875 483.25 C276.25220215 482.74436523 276.25220215 482.74436523 277.65722656 482.22851562 C284.88764432 479.47337167 291.81086352 476.22865116 298.6875 472.6875 C299.6148999 472.2138501 300.5422998 471.7402002 301.49780273 471.25219727 C317.54652596 462.71151313 328.02841693 451.56247845 334.25 434.453125 C338.00100653 421.01201827 335.90094415 406.04546621 329.5625 393.875 C323.157523 382.86156394 314.31724438 376.13187245 302.4375 371.6875 C301.13232422 371.15189453 301.13232422 371.15189453 299.80078125 370.60546875 C280.03397224 365.21034666 262.2710835 373.14900349 245.4375 382.6875 C243.07920278 384.03465721 240.72700811 385.39183586 238.375 386.75 C194.70401154 411.88330343 137.1535589 427.6619159 86.9765625 415.01171875 C85.46020391 414.58191863 83.94719464 414.14015175 82.4375 413.6875 C81.59928711 413.44080566 80.76107422 413.19411133 79.89746094 412.93994141 C58.17652572 406.35575766 39.83604375 395.3559716 23.4375 379.6875 C22.7259375 379.05070312 22.014375 378.41390625 21.28125 377.7578125 C4.38958898 362.02898321 -6.87523729 340.18743159 -14.5625 318.6875 C-14.91699219 317.70652344 -15.27148438 316.72554687 -15.63671875 315.71484375 C-18.97285238 305.70644286 -21.00498155 295.32292482 -22.94677734 284.96972656 C-23.34353613 282.85472848 -23.75184201 280.74184774 -24.17431641 278.63183594 C-27.66139299 260.7873866 -27.93429124 243.12824537 -27.9375 225 C-27.93940338 223.83450623 -27.94130676 222.66901245 -27.94326782 221.46820068 C-27.94073086 207.73694664 -27.47942188 194.28921367 -25.5625 180.6875 C-25.41135742 179.55884521 -25.26021484 178.43019043 -25.10449219 177.26733398 C-20.94644169 147.3726253 -12.66987732 107.23507574 11.29296875 86.046875 C12.63481155 84.7515813 12.63481155 84.7515813 12.42578125 82.8671875 C11.01014918 79.74496342 8.87197686 77.35855989 6.625 74.8125 C6.13725098 74.24805176 5.64950195 73.68360352 5.14697266 73.10205078 C4.11072386 71.90348604 3.07158194 70.70741744 2.02978516 69.51367188 C-0.55931291 66.54426778 -3.12298261 63.55313071 -5.6875 60.5625 C-6.19031494 59.97710449 -6.69312988 59.39170898 -7.21118164 58.78857422 C-11.75071794 53.49306435 -16.17556288 48.11001522 -20.5625 42.6875 C-21.29726563 41.79933594 -22.03203125 40.91117187 -22.7890625 39.99609375 C-28.91006947 32.52846524 -32.20029871 27.55588976 -31.90625 17.65625 C-31.09115875 10.61682553 -27.7838757 6.35165893 -22.44140625 1.9140625 C-15.70755451 -2.48184071 -7.48207718 -2.72437979 0 0 Z " fill="#383434" transform="translate(430.5625,290.3125)"/>
<path d="M0 0 C1.55813496 -0.00761181 1.55813496 -0.00761181 3.1477474 -0.0153774 C4.28245399 -0.01587516 5.41716058 -0.01637292 6.58625221 -0.01688576 C7.79683945 -0.02126801 9.00742669 -0.02565027 10.2546984 -0.03016531 C13.61212308 -0.04121214 16.96950131 -0.04777222 20.32693744 -0.05234647 C23.94953838 -0.05831425 27.57212227 -0.0699213 31.19471169 -0.08063698 C39.94323354 -0.10513651 48.69176102 -0.1197858 57.4403066 -0.13269705 C59.91317035 -0.13641117 62.38603354 -0.14038423 64.85889673 -0.14444971 C80.22902014 -0.1696916 95.5991445 -0.19173551 110.96928406 -0.20417786 C114.52793697 -0.20710736 118.08658985 -0.21006904 121.64524269 -0.21308327 C122.52968373 -0.21382932 123.41412477 -0.21457537 124.32536705 -0.21534403 C138.63833271 -0.22798543 152.9511738 -0.26119337 167.26408128 -0.3028851 C181.97368424 -0.34537943 196.68322356 -0.36888164 211.39288771 -0.37409842 C219.64573505 -0.37750435 227.89838783 -0.38916238 236.15117455 -0.42220116 C243.18295299 -0.45030628 250.21449697 -0.46115548 257.24632721 -0.4500057 C260.82907913 -0.44484533 264.41134088 -0.44753247 267.99402046 -0.47247124 C287.65877864 -0.6017769 303.2465891 -0.26856214 318.7726841 13.13701439 C319.56287941 13.80474876 320.35307472 14.47248314 321.16721535 15.16045189 C331.50984562 24.63972802 340.08630872 40.11671446 340.89743996 54.32182884 C341.52951887 74.5700141 341.52951887 74.5700141 337.7726841 84.13701439 C337.44397316 85.0818972 337.11526222 86.02678001 336.77659035 87.00029564 C329.89016622 105.37203612 317.0436454 117.52098302 299.7726841 126.13701439 C293.69996881 128.85900167 288.45842481 130.73130245 281.7726841 130.13701439 C284.55335488 134.47330519 287.58729934 138.42768637 290.9601841 142.32451439 C291.94531983 143.47490504 292.92968435 144.62595653 293.9133091 145.77763939 C294.39864113 146.34547142 294.88397316 146.91330345 295.38401222 147.49834251 C297.35983536 149.8298694 299.28570798 152.2005256 301.2101841 154.57451439 C304.6654395 158.82095529 308.20006608 162.98961479 311.7726841 167.13701439 C337.422046 196.96091401 337.422046 196.96091401 337.15159035 207.79717064 C336.26708818 213.2591995 332.82648539 217.42030444 328.7726841 221.01201439 C322.9434879 225.14102836 317.8514454 226.12804097 310.7726841 225.13701439 C300.19181085 221.50870728 291.8313604 208.3571573 285.0851841 199.98467064 C282.5240167 196.83080066 279.90544979 193.7310708 277.2726841 190.63701439 C273.91798069 186.69071271 270.60045972 182.72058618 267.3351841 178.69951439 C263.37760222 173.83572414 259.30725963 169.07820207 255.21433449 164.32866478 C251.43934019 159.93901089 247.76539948 155.47586668 244.1164341 150.98076439 C241.37966272 147.66014845 238.58162025 144.3965773 235.7726841 141.13701439 C231.45334138 136.12386666 227.22171132 131.05163924 223.05002785 125.91435814 C220.49064438 122.79305172 217.88678494 119.71248015 215.2726841 116.63701439 C211.91821283 112.69050958 208.6004658 108.72059367 205.3351841 104.69951439 C201.84398208 100.40602538 198.26358278 96.20010906 194.6476841 92.01201439 C190.85600421 87.61808847 187.19466618 83.175929 183.69065285 78.54717064 C182.11276053 76.56436094 180.49679009 74.65916037 178.82346535 72.75810814 C178.29108253 72.1509597 177.75869972 71.54381126 177.2101841 70.91826439 C176.15896057 69.72553 175.10078636 68.53887055 174.03440285 67.35967064 C167.73058826 60.19774516 164.94370788 53.92385281 165.2570591 44.26592064 C166.18313567 38.64631964 169.09799966 35.33064048 173.40159035 31.80107689 C178.91285094 27.90590023 184.21786199 27.33238054 190.7726841 28.13701439 C201.31708553 31.71889121 209.61545404 44.82077707 216.3273716 53.15654564 C219.24272182 56.70991979 222.25080252 60.17425172 225.2726841 63.63701439 C229.76437816 68.7884361 234.15336118 74.00242702 238.4523716 79.31670189 C241.74046613 83.31334204 245.13420541 87.21665024 248.5226841 91.12822533 C251.75175413 94.87804565 254.79127792 98.69377608 257.58909035 102.78154564 C258.83481586 104.43916947 258.83481586 104.43916947 261.7726841 105.13701439 C277.17104954 106.1003993 290.46053195 104.34985949 302.7726841 94.13701439 C313.76840944 82.08791704 316.6043137 69.13359311 315.95188332 53.31621361 C315.55389933 48.47642472 313.9685642 44.41932263 311.7726841 40.13701439 C311.34858253 39.28881126 310.92448097 38.44060814 310.48752785 37.56670189 C300.71557033 19.76486284 280.76058428 9.15111055 261.83451271 3.58389854 C252.69931773 1.34616438 243.4564165 1.70964958 234.11155128 1.73296165 C232.03724235 1.72725077 229.96293654 1.72028375 227.88863564 1.71216393 C222.2830331 1.69429422 216.67758763 1.69538957 211.07196522 1.70110631 C206.37807484 1.70420795 201.68421421 1.6980947 196.99032807 1.69206756 C185.90782628 1.67804346 174.8254016 1.67956526 163.74289894 1.69096947 C152.34350689 1.70244121 140.94435037 1.68838591 129.54498935 1.66157299 C119.72800129 1.63935413 109.91108683 1.63279275 100.09407544 1.6386494 C94.24409738 1.64200628 88.39427014 1.63968901 82.54431343 1.62239838 C77.03822041 1.60683311 71.53247371 1.61099038 66.02639389 1.62970352 C64.01740837 1.63336339 62.00839663 1.63035789 59.99943542 1.61981773 C44.0589741 1.54263697 30.17475988 3.64559993 15.4601841 10.19951439 C14.58120461 10.58599144 13.70222511 10.97246849 12.79660988 11.37065697 C-8.47325719 20.95678049 -27.99082366 34.23443465 -44.64284325 50.58330345 C-46.33052868 52.23822335 -48.03838849 53.87075328 -49.74684715 55.50420189 C-86.6166623 91.13020401 -108.30098442 140.46068403 -118.2273159 190.13701439 C-118.5055117 191.51566673 -118.5055117 191.51566673 -118.78932762 192.92217064 C-123.5856508 217.01688762 -125.46654635 241.21551277 -125.5398159 265.76201439 C-125.54243431 266.61585716 -125.54505272 267.46969994 -125.54775047 268.34941673 C-125.55392562 287.45002834 -123.7894473 306.2244846 -121.2273159 325.13701439 C-121.06714989 326.32794701 -120.90698387 327.51887962 -120.74196434 328.74590111 C-118.68003788 343.50990743 -115.30455269 357.80804046 -111.2273159 372.13701439 C-111.03589012 372.83101341 -110.84446434 373.52501244 -110.64723778 374.24004173 C-99.26252869 415.29431094 -78.55335854 452.3600581 -49.2273159 483.13701439 C-48.50157372 483.91560814 -47.77583153 484.69420189 -47.02809715 485.49638939 C-22.77872878 510.77669209 11.09498778 528.83394258 45.7726841 533.13701439 C45.7726841 533.46701439 45.7726841 533.79701439 45.7726841 534.13701439 C38.27014689 534.23025366 30.76767079 534.30105001 23.26468372 534.34426308 C19.77959148 534.36501769 16.29489955 534.39310821 12.81003761 534.4387722 C8.79103999 534.4910975 4.77245385 534.51005951 0.75315285 534.52763939 C-1.09751541 534.5586071 -1.09751541 534.5586071 -2.98557091 534.59020042 C-16.56360803 534.59367575 -26.13868903 529.57273075 -37.2273159 522.13701439 C-37.80417137 521.75239037 -38.38102684 521.36776634 -38.97536278 520.97148705 C-46.73073733 515.75053462 -53.78457627 510.0834075 -60.5632534 503.64873314 C-62.73374666 501.60235899 -64.937515 499.67018181 -67.2273159 497.76201439 C-104.51301654 465.07003457 -125.90143533 415.72474819 -139.2273159 369.13701439 C-139.56351952 367.96477318 -139.56351952 367.96477318 -139.90651512 366.76885033 C-142.40115867 357.97548636 -144.47706289 349.10706107 -146.2273159 340.13701439 C-146.41874168 339.1743264 -146.41874168 339.1743264 -146.61403465 338.19219017 C-149.1469707 325.22343222 -150.14268008 312.20803731 -150.97780418 299.03276634 C-151.15690668 296.95416091 -151.42184323 294.8822854 -151.74147606 292.82060814 C-152.28871262 288.67151006 -152.4067248 284.64029217 -152.4304409 280.46123314 C-152.43745522 279.63123299 -152.44446953 278.80123283 -152.4516964 277.94608116 C-152.46926683 275.23883727 -152.47556158 272.53181345 -152.4773159 269.82451439 C-152.47799065 268.89306602 -152.47866539 267.96161766 -152.47936058 267.00194359 C-152.44198562 234.31666432 -149.51201573 201.61114125 -140.2273159 170.13701439 C-139.79076047 168.52974298 -139.35740325 166.92160088 -138.92653465 165.31279564 C-126.96070273 121.14364512 -105.012155 80.18902315 -73.2273159 47.13701439 C-72.70879051 46.59657494 -72.19026512 46.05613548 -71.65602684 45.49931908 C-64.58008185 38.16807842 -57.30655083 31.3722014 -49.2273159 25.13701439 C-48.27212059 24.38806908 -47.31692528 23.63912376 -46.33278465 22.86748314 C-16.6653478 0.0433869 -16.6653478 0.0433869 0 0 Z " fill="#393536" transform="translate(435.22731590270996,246.8629856109619)"/>
<path d="M0 0 C6.09723425 3.08665691 10.16314322 8.50254893 14.4375 13.6875 C15.15550781 14.55761719 15.87351562 15.42773438 16.61328125 16.32421875 C18.06925754 18.10492832 19.51956002 19.89028859 20.96484375 21.6796875 C23.8543038 25.19451252 26.82431826 28.63160851 29.8125 32.0625 C35.29347293 38.35714806 40.70877569 44.70252319 46.0859375 51.0859375 C47.4706547 52.72678736 48.85968891 54.36388805 50.25 56 C54.50264124 61.00696389 58.73197886 66.02647129 62.875 71.125 C67.29012824 76.54750153 71.83762477 81.84877455 76.3984375 87.1484375 C79.71871506 91.00839192 83.00461554 94.89682926 86.28808594 98.78808594 C89.69044577 102.81571793 93.12328608 106.81632616 96.5625 110.8125 C100.14376602 114.9743418 103.6690813 119.17019169 107.125 123.4375 C109.97208501 126.9463399 112.89562552 130.34616637 115.9375 133.6875 C119.77819657 137.90629623 123.39660346 142.26468295 126.984375 146.69921875 C129.77202815 150.09500643 132.62970211 153.4241349 135.5 156.75 C152.00409614 175.92429864 152.00409614 175.92429864 151.8203125 185.73046875 C151.03201672 191.81965146 148.31195983 196.81304017 144 201.125 C136.33764036 205.79717051 130.38029457 206.84075631 121.4375 205.6875 C112.76430174 202.7872267 106.73250002 193.47092163 101.09716797 186.67773438 C98.99663756 184.15882824 96.85393661 181.67815418 94.70849609 179.19750977 C90.73728718 174.60225374 86.82566141 169.9676189 83 165.25 C78.89964086 160.2005523 74.65380651 155.28976983 70.3840332 150.3840332 C63.48997327 142.45983795 56.67991012 134.46996193 50.0625 126.3125 C44.88117732 119.94898604 39.48008799 113.78145494 34.09277344 107.59277344 C24.59777644 96.66372379 15.24603177 85.61874461 6.125 74.375 C2.47940651 69.90350214 -1.27259889 65.53628054 -5.0625 61.1875 C-10.35185817 55.11634293 -15.50755992 48.95600793 -20.5625 42.6875 C-21.29597656 41.800625 -22.02945312 40.91375 -22.78515625 40 C-28.90857349 32.53187589 -32.20035322 27.55772512 -31.90625 17.65625 C-31.09115875 10.61682553 -27.7838757 6.35165893 -22.44140625 1.9140625 C-15.70755451 -2.48184071 -7.48207718 -2.72437979 0 0 Z " fill="#F2741B" transform="translate(430.5625,290.3125)"/>
<path d="M0 0 C1.17949219 -0.04898437 2.35898437 -0.09796875 3.57421875 -0.1484375 C11.71857163 0.99194211 16.72796279 6.38451767 21.75 12.5 C22.30929199 13.16306152 22.86858398 13.82612305 23.44482422 14.50927734 C25.07998088 16.45446084 26.69905368 18.41179283 28.3125 20.375 C29.52486328 21.84453125 29.52486328 21.84453125 30.76171875 23.34375 C32.20498549 25.10572735 33.64384201 26.87132701 35.078125 28.640625 C37.5823253 31.70520579 40.12797298 34.7316222 42.6875 37.75 C43.14769531 38.29269531 43.60789062 38.83539063 44.08203125 39.39453125 C45.49150132 41.05527174 46.90183242 42.71527662 48.3125 44.375 C53.50469022 50.48388035 58.69373581 56.59010641 63.75 62.8125 C67.20524151 67.05892382 70.73947834 71.22796294 74.3125 75.375 C78.63178956 80.38819488 82.86347119 85.4603732 87.03515625 90.59765625 C89.59454054 93.71896367 92.19843791 96.7995003 94.8125 99.875 C98.18533589 103.84403543 101.52426645 107.83517021 104.8125 111.875 C110.35909704 118.68487893 116.0512923 125.36993334 121.74462891 132.05712891 C127.00103779 138.23175046 132.19544617 144.43900535 137.23046875 150.796875 C139.64335526 153.78468945 142.13107308 156.70502541 144.625 159.625 C148.61537088 164.31675126 152.53655525 169.05797815 156.375 173.875 C157.07266479 174.73786621 157.07266479 174.73786621 157.78442383 175.61816406 C163.11291539 182.36619986 164.23890099 187.91862173 163.3125 196.375 C161.49095686 203.10779236 157.17446608 206.90124232 151.3125 210.375 C145.80054596 212.95506359 140.05509718 213.42265151 134.19140625 211.78125 C125.696608 207.91572712 120.05172762 199.43680198 114.3125 192.375 C113.11947266 190.92287109 113.11947266 190.92287109 111.90234375 189.44140625 C110.46825708 187.68979041 109.03855563 185.93457504 107.61328125 184.17578125 C104.93191084 180.91170217 102.19187137 177.7024928 99.4375 174.5 C98.93041504 173.91041504 98.42333008 173.32083008 97.90087891 172.71337891 C97.39347168 172.12347168 96.88606445 171.53356445 96.36328125 170.92578125 C89.3446361 162.76524023 82.41989804 154.5355176 75.625 146.1875 C72.5881723 142.4940609 69.49289045 138.85201514 66.39624023 135.20874023 C63.5170468 131.81545891 60.68045763 128.39232214 57.875 124.9375 C54.41975373 120.69107033 50.88538048 116.52216345 47.3125 112.375 C43.06722539 107.44461858 38.89187714 102.46816059 34.7890625 97.41796875 C31.64656914 93.55676634 28.47962787 89.71600272 25.3125 85.875 C21.42274053 81.15761021 17.54285434 76.43309071 13.6875 71.6875 C10.29163684 67.52788323 6.81574887 63.44396031 3.3125 59.375 C-1.78583105 53.45254195 -6.78134529 47.45825516 -11.6875 41.375 C-12.34878906 40.58351563 -13.01007813 39.79203125 -13.69140625 38.9765625 C-18.75816982 32.77797492 -22.08853168 27.58361725 -21.6875 19.375 C-20.73482961 12.70630729 -17.59394125 7.82903226 -12.5625 3.4375 C-8.32811993 0.39979256 -5.11625979 0.14380838 0 0 Z " fill="#F3791C" transform="translate(517.6875,256.625)"/>
<path d="M0 0 C9.53219487 5.31754672 16.78203622 15.97123853 23.5078125 24.32421875 C26.42316272 27.8775929 29.43124343 31.34192483 32.453125 34.8046875 C36.94842471 39.96024444 41.33936507 45.17980598 45.64453125 50.49609375 C48.36656685 53.80767343 51.15455639 57.0577875 53.953125 60.3046875 C58.27252086 65.31778809 62.50409936 70.3900646 66.67578125 75.52734375 C69.23516717 78.64865317 71.83914045 81.72911989 74.453125 84.8046875 C80.10178925 91.4549504 85.62136188 98.20589977 91.125 104.9765625 C95.6478911 110.52592534 100.23285806 116.01577884 104.86889648 121.47045898 C107.74832768 124.8638413 110.58502227 128.28718667 113.390625 131.7421875 C116.30538184 135.32718255 119.27416459 138.85444387 122.29736328 142.34765625 C126.96139144 147.73918354 131.55957502 153.17699954 136.015625 158.7421875 C136.46856934 159.29688721 136.92151367 159.85158691 137.38818359 160.4230957 C141.88761972 166.11094945 144.64254612 171.68808766 144.3671875 179.03515625 C143.13723088 185.77671093 138.34142927 190.48797198 132.953125 194.3046875 C128.32186411 197.00625635 123.16080067 197.03376209 117.953125 196.3046875 C107.37225175 192.67638039 99.01180131 179.52483042 92.265625 171.15234375 C89.70445761 167.99847377 87.08589069 164.89874391 84.453125 161.8046875 C81.09842159 157.85838582 77.78090063 153.88825929 74.515625 149.8671875 C70.55804312 145.00339725 66.48770054 140.24587519 62.39477539 135.49633789 C58.61978109 131.106684 54.94584039 126.64353979 51.296875 122.1484375 C48.56010362 118.82782156 45.76206115 115.56425041 42.953125 112.3046875 C38.63378228 107.29153977 34.40215223 102.21931235 30.23046875 97.08203125 C27.67108528 93.96072483 25.06722584 90.88015326 22.453125 87.8046875 C19.09865373 83.85818269 15.78090671 79.88826678 12.515625 75.8671875 C9.02442298 71.57369849 5.44402368 67.36778217 1.828125 63.1796875 C-1.96355489 58.78576158 -5.62489291 54.34360211 -9.12890625 49.71484375 C-10.70679857 47.73203405 -12.32276901 45.82683348 -13.99609375 43.92578125 C-14.79466797 43.01505859 -14.79466797 43.01505859 -15.609375 42.0859375 C-16.66059853 40.89320311 -17.71877273 39.70654366 -18.78515625 38.52734375 C-25.08897084 31.36541827 -27.87585122 25.09152592 -27.5625 15.43359375 C-26.63642343 9.81399275 -23.72155944 6.49831359 -19.41796875 2.96875 C-13.66196847 -1.09940058 -6.74543334 -2.29138766 0 0 Z " fill="#F2741B" transform="translate(628.046875,275.6953125)"/>
<path d="M0 0 C30.70139956 -0.11424969 61.40275014 -0.20264442 92.10431174 -0.25532665 C95.73515023 -0.26157961 99.36598831 -0.26805128 102.99682617 -0.2746582 C103.7196109 -0.27596976 104.44239564 -0.27728131 105.18708294 -0.2786326 C116.86526183 -0.30034424 128.5433167 -0.33974212 140.2214222 -0.38576398 C152.21882855 -0.43264717 164.21617029 -0.46032035 176.21366447 -0.47044247 C182.94637323 -0.47666641 189.67882422 -0.49153998 196.4114399 -0.52865028 C202.75700843 -0.56275387 209.10218254 -0.57302383 215.44783401 -0.56553841 C217.76847545 -0.56690653 220.08913098 -0.5767525 222.40969276 -0.59602737 C240.51874638 -0.73898189 254.73808906 0.68594817 269 13 C269.79019531 13.66773438 270.58039063 14.33546875 271.39453125 15.0234375 C281.73716153 24.50271363 290.31362462 39.97970007 291.12475586 54.18481445 C291.75683477 74.43299971 291.75683477 74.43299971 288 84 C287.67128906 84.94488281 287.34257813 85.88976562 287.00390625 86.86328125 C280.11952502 105.22957166 267.27245709 117.3929808 250 126 C246.38803618 127.59609129 242.82671867 129.01836347 239 130 C238.37633545 130.17708496 237.7526709 130.35416992 237.11010742 130.53662109 C234.93464616 131.01375249 233.2173673 131.24408612 231 131 C228.46895909 129.34582212 226.85174136 127.16001109 225.0625 124.75 C224.5581543 124.11626465 224.05380859 123.4825293 223.53417969 122.82958984 C222.50372015 121.53191386 221.48395422 120.22567389 220.47509766 118.91113281 C218.29973192 116.09273443 216.02215062 113.36589351 213.75 110.625 C212.49826362 109.08474283 211.24753256 107.54366403 210 106 C212.68193956 104.65903022 215.02988644 105.02063316 217.96655273 105.11694336 C231.31385042 105.50795897 242.48627684 102.72106068 253 94 C263.99572534 81.95090265 266.83162961 68.99657872 266.17919922 53.17919922 C265.78121523 48.33941033 264.1958801 44.28230824 262 40 C261.57589844 39.15179688 261.15179687 38.30359375 260.71484375 37.4296875 C250.94327271 19.6285525 230.96945572 8.98666529 212.03179932 3.44865417 C203.05350462 1.24852312 194.00484286 1.55929838 184.81933594 1.56762695 C182.79788112 1.55859717 180.77643176 1.54826699 178.75498962 1.53674316 C173.29924797 1.50928996 167.84361054 1.49990456 162.3878088 1.49388909 C156.67428945 1.48447492 150.96084702 1.45826913 145.24737549 1.43388367 C134.44237884 1.39029854 123.63739719 1.36170255 112.83233953 1.33856028 C100.52511668 1.31146573 88.21797153 1.26755688 75.91080427 1.22227156 C50.60724504 1.12953969 25.30366143 1.05780657 0 1 C0 0.67 0 0.34 0 0 Z " fill="#433E3F" transform="translate(485,247)"/>
<path d="M0 0 C2.38835089 1.76889607 4.07667478 3.963432 5.875 6.3125 C6.38458252 6.94462402 6.89416504 7.57674805 7.41918945 8.22802734 C8.45870515 9.51966014 9.49009864 10.81787268 10.51318359 12.12255859 C11.88861407 13.85935011 13.29891628 15.55436654 14.73828125 17.23828125 C21.39557259 25.08475382 21.39557259 25.08475382 22 29 C21.30519531 29.01417969 20.61039063 29.02835937 19.89453125 29.04296875 C3.52290565 29.81071292 -12.07155572 34.4399491 -27 41 C-28.66403155 41.67321707 -30.32970486 42.3424771 -32 43 C-32.52207031 42.35675781 -33.04414063 41.71351563 -33.58203125 41.05078125 C-37.03262251 36.81459127 -40.48220497 32.58602237 -44.046875 28.4453125 C-44.54856201 27.86096436 -45.05024902 27.27661621 -45.56713867 26.67456055 C-46.55535296 25.52661856 -47.54764313 24.38217139 -48.54418945 23.24145508 C-52 19.22110283 -52 19.22110283 -52 17 C-37.69478754 9.09005899 -16.76204156 -2.15511963 0 0 Z " fill="#3D3838" transform="translate(532,328)"/>
<path d="M0 0 C5.45588484 0.17541093 10.89422299 0.44664488 16.33984375 0.82568359 C18.04436808 0.93737875 19.75026699 1.03056533 21.45703125 1.10009766 C30.05792889 1.49056129 36.39928041 2.47448519 42.41699219 9.015625 C44.59574581 11.64305964 46.64775611 14.3384665 48.63623047 17.11230469 C50.5165549 19.71500224 52.56575888 22.16262702 54.625 24.625 C55.31851563 25.48351562 56.01203125 26.34203125 56.7265625 27.2265625 C58.44902979 29.32785421 60.19039898 31.40077734 61.9609375 33.4609375 C62.46544434 34.0492334 62.96995117 34.6375293 63.48974609 35.24365234 C64.47587433 36.39046879 65.46563254 37.53417664 66.45947266 38.67431641 C68.55804663 41.11823492 69.97000279 42.91000836 71 46 C64.62481988 44.74773248 58.5471752 42.91220077 52.38354492 40.88793945 C46.14189164 38.90536512 39.90595214 37.8544819 33.42578125 36.96875 C29.25524871 35.78939758 27.78662356 34.27784057 25 31 C24.14921875 30.02804687 23.2984375 29.05609375 22.421875 28.0546875 C21.52860689 26.99701829 20.63806961 25.93703787 19.75 24.875 C19.0381958 24.02784424 19.0381958 24.02784424 18.31201172 23.16357422 C16.87117823 21.44526828 15.43479419 19.72335057 14 18 C13.16210938 16.99453125 12.32421875 15.9890625 11.4609375 14.953125 C7.43974281 10.08465517 3.63807556 5.15922214 0 0 Z " fill="#3F3938" transform="translate(584,323)"/>
<path d="M0 0 C5.94 0 11.88 0 18 0 C18 0.33 18 0.66 18 1 C9.09 2.485 9.09 2.485 0 4 C0 2.68 0 1.36 0 0 Z " fill="#494445" transform="translate(467,247)"/>
<path d="M0 0 C6.93 0 13.86 0 21 0 C21 0.33 21 0.66 21 1 C17.7 1 14.4 1 11 1 C11 1.66 11 2.32 11 3 C7.37 2.34 3.74 1.68 0 1 C0 0.67 0 0.34 0 0 Z " fill="#464244" transform="translate(687,247)"/>
<path d="M0 0 C0.66 0.33 1.32 0.66 2 1 C-0.97 3.97 -3.94 6.94 -7 10 C-7.66 9.67 -8.32 9.34 -9 9 C-8.06725891 7.87105124 -7.12859878 6.74699124 -6.1875 5.625 C-5.66542969 4.99851562 -5.14335937 4.37203125 -4.60546875 3.7265625 C-3 2 -3 2 0 0 Z " fill="#EB8433" transform="translate(410,291)"/>
<path d="M0 0 C4.69564393 3.31457218 7.72469104 7.36279281 11 12 C9.68 12 8.36 12 7 12 C6.401875 10.906875 5.80375 9.81375 5.1875 8.6875 C3.69770009 6.05781761 2.19726601 4.08740271 0 2 C0 1.34 0 0.68 0 0 Z " fill="#EEDACB" transform="translate(610,315)"/>
</svg>
